<svg fill="#f0f0f0" width="52" height="52" viewBox="0 0 64 64" xmlns="http://www.w3.org/2000/svg"><path d="M32 1C14.8 1 1 14.8 1 32C1 49.2 14.8 63 32 63C49.2 63 63 49.2 63 32C63 14.8 49.2 1 32 1ZM46.2 45.7C45.6 46.5 44.5 46.8 43.5 46.4C36.2 41.9 27 40.9 16.3 43.3C15.2 43.6 14.2 42.9 14 41.9C13.7 40.8 14.4 39.8 15.4 39.5C27.2 36.8 37.2 38 45.6 43C46.5 43.7 46.8 44.8 46.2 45.7ZM50 37.4C49.3 38.5 47.7 38.8 46.8 38.1C38.5 33 25.8 31.5 15.9 34.6C14.6 35 13.2 34.3 12.9 32.9C12.5 31.6 13.2 30.2 14.6 29.9C25.9 26.4 39.8 28.2 49.4 34C50.3 34.7 50.7 36.1 50 37.4ZM50.3 28.5C40.3 22.6 23.8 22 14.2 25C12.8 25.4 11.1 24.6 10.7 23C10.3 21.6 11.1 19.9 12.7 19.5C23.7 16.3 41.7 16.8 53.3 23.7C54.7 24.5 55.1 26.4 54.4 27.6C53.6 28.9 51.7 29.3 50.3 28.5Z"/></svg>